
<svg xmlns="http://www.w3.org/2000/svg" width="2653.101" height="609.767" version="1.1" id="svg28"><defs id="defs4"><style id="style2">.cls-1{fill:#e91e63}</style></defs><g id="Layer_2" data-name="Layer 2"><g id="Layer_1-2" data-name="Layer 1"><g id="g20" fill="#263238" fill-opacity="1"><path class="cls-1" d="M865.784 368c12.54 59 42.903 80.658 102.307 80.658 57.422 0 84.482-30.299 84.482-63.3 0-99.005-219.13-29.007-219.13-163.654 0-56.767 44.221-97.49 120.126-97.49 73.925 0 122.107 29.786 132.006 107.786h-40.259c-7.262-53-42.903-72.127-92.405-72.127-50.163 0-77.225 23.67-77.225 58.655 0 93.063 219.13 34.935 219.13 166.283 0 65.345-58.74 99.513-139.266 99.513S828.823 433 825.523 368z" id="path8" fill="#263238" fill-opacity="1"/><path class="cls-1" d="M1207 475h-40V133h40v52h1.335c20.46-39 61.383-60.838 105.604-60.838 63.366 0 85.806 29.644 100.33 65.95 22.44-44.226 62.663-66.036 111.505-66.036 93.063 0 106.226 66.638 106.226 135.282V475h-40V238.897c0-48.841-16.923-79.206-73.023-79.206-29.043 0-57.08 12.54-76.882 38.943-17.162 22.44-22.095 64.024-22.095 92.405V475h-40V238.897c0-48.841-17.188-79.206-73.292-79.206-29.044 0-57.445 12.54-77.248 38.943-17.161 22.44-22.46 64.024-22.46 92.405z" id="path10" fill="#263238" fill-opacity="1"/><path class="cls-1" d="M1879.576 275.857c14.519-1.316 38.942-5.279 52.141-11.22 13.204-5.942 14.524-23.76 14.524-35.643 0-40.26-23.765-69.26-85.147-69.26-54.784 0-92.406 18.266-99.663 77.266h-40.264c5.942-81 66.082-112.91 140.668-112.91 69.303 0 124.165 27.023 124.165 106.224v186.132c0 31.022 8 38.285 41 26.402v31.023c-6 1.978-19.59 6.599-30.81 6.599a76.604 76.604 0 0 1-17.712-1.979c-26.407-3.962-30.974-27.06-31.632-50.825-33.001 36.964-77.859 56.766-127.359 56.766-60.066 0-114.173-32.343-114.173-98.346 0-57.425 39.607-92.405 119.472-102.967zM1946 295.659c-33 13.862-67.866 16.504-102.188 19.14-60.062 4.621-96.303 26.403-96.303 72.608 0 41.58 36.21 61.382 73.833 61.382 62.703 0 124.658-30.364 124.658-99.667z" id="path12" fill="#263238" fill-opacity="1"/><path class="cls-1" d="M2093 59V0h44v59zm2 416V133h40v342z" id="path14" fill="#263238" fill-opacity="1"/><path class="cls-1" d="M2242 475V0h40v475z" id="path16" fill="#263238" fill-opacity="1"/><path class="cls-1" d="M2380 568.255c10 1.983 21.705 3.962 32.925 3.962 44.88 0 51.446-64.831 66.623-94.533L2346.846 133h44.221l109.567 293.719L2610.2 133h42.9l-127.385 337.427c-32.343 85.805-53.386 139.34-108.17 139.34a154.29 154.29 0 0 1-37.545-4.548z" id="path18" fill="#263238" fill-opacity="1"/></g><path class="cls-1" id="rect22" d="M0 2h606v606H0z"/><path d="M424.283 535.482c0 27.076-6.154 49.518-17.824 72.518H305.221c27.486-18 38.608-46.308 38.608-71.47 0-67.827-69.468-82.115-149.875-98.89C113.819 421.05 24.57 402.612 0 322.341v-94.31c21.104-71.519 91.848-115.506 191.994-115.506 131.003 0 202.158 58.231 217.474 177.794l.957 7.681h-77.353l-.776-5.994c-10.119-73.661-56.339-109.911-141.35-109.911-73.252 0-117.011 32.723-117.011 87.467 0 62.904 68.465 79.264 147.732 98.272 94.95 22.745 202.616 48.54 202.616 167.648z" id="path24" fill="#fff"/></g></g></svg>